<svg width="80" height="80" viewBox="0 0 80 80" fill="none" xmlns="http://www.w3.org/2000/svg">
<g clip-path="url(#clip0)">
<path d="M68.284 11.7158C51.8582 -4.71018 25.0245 -3.70702 9.82765 13.7384C9.34398 14.2938 9.40198 15.1359 9.95715 15.6196C10.5123 16.1033 11.3546 16.0453 11.8383 15.4899C18.9371 7.34063 29.2016 2.6668 39.9998 2.6668C60.5854 2.6668 77.333 19.4144 77.333 40.0001C77.333 60.5857 60.5854 77.3333 39.9998 77.3333C19.4141 77.3333 2.6665 60.5857 2.6665 40.0001C2.6665 35.1581 3.57949 30.4477 5.37999 25.9999C5.65632 25.3174 5.32699 24.5401 4.64433 24.2638C3.96183 23.9874 3.18449 24.3168 2.90816 24.9994C0.978498 29.7666 0 34.8136 0 40.0001C0 62.1069 17.8901 80 39.9999 80C62.1067 80 79.9999 62.1099 79.9999 40.0001C79.9999 29.3158 75.839 19.2708 68.284 11.7158Z" fill="black"/>
<path d="M71.071 31.5398C71.7729 31.3173 72.1615 30.5678 71.939 29.8658C67.5907 16.1503 54.8186 6.50049 39.9999 6.50049C21.528 6.50049 6.5 21.5285 6.5 40.0004C6.5 58.4724 21.528 73.5004 39.9999 73.5004C58.4719 73.5004 73.4999 58.4724 73.4999 40.0004C73.4999 39.2641 72.9029 38.6671 72.1665 38.6671H69.1665C68.4302 38.6671 67.8332 39.2641 67.8332 40.0004C67.8332 40.7368 68.4302 41.3338 69.1665 41.3338H70.8025C70.1205 57.2767 57.2762 70.1212 41.3333 70.803V69.167C41.3333 68.4307 40.7363 67.8337 39.9999 67.8337C39.2636 67.8337 38.6666 68.4307 38.6666 69.167V70.803C22.7238 70.121 9.87916 57.2766 9.19733 41.3338H10.8333C11.5697 41.3338 12.1667 40.7368 12.1667 40.0004C12.1667 39.2641 11.5697 38.6671 10.8333 38.6671H9.19733C9.87933 22.7241 22.7238 9.87965 38.6666 9.19782V10.8338C38.6666 11.5701 39.2636 12.1671 39.9999 12.1671C40.7363 12.1671 41.3333 11.5701 41.3333 10.8338V9.19598C54.2779 9.74365 65.4542 18.2343 69.3972 30.6716C69.6195 31.3736 70.3685 31.7623 71.071 31.5398Z" fill="black"/>
<path d="M32.4974 39.333C29.5566 39.333 27.1641 41.7255 27.1641 44.6663V47.333C27.1641 48.0693 27.7611 48.6663 28.4974 48.6663H36.4974C37.2337 48.6663 37.8307 48.0693 37.8307 47.333C37.8307 46.5966 37.2337 45.9996 36.4974 45.9996H29.8307V44.6663C29.8307 43.1958 31.0271 41.9997 32.4974 41.9997C35.4382 41.9997 37.8307 39.6072 37.8307 36.6663C37.8307 33.7255 35.4382 31.333 32.4974 31.333H28.4974C27.7611 31.333 27.1641 31.93 27.1641 32.6663C27.1641 33.4027 27.7611 33.9997 28.4974 33.9997H32.4974C33.9677 33.9997 35.164 35.1958 35.164 36.6663C35.164 38.1368 33.9677 39.333 32.4974 39.333Z" fill="black"/>
<path d="M43.7268 31.3525C43.0022 31.228 42.3117 31.7142 42.1863 32.4398L40.5197 42.1065C40.3793 42.9217 41.0078 43.6663 41.8337 43.6663H48.5003V47.333C48.5003 48.0693 49.0973 48.6663 49.8337 48.6663C50.57 48.6663 51.167 48.0693 51.167 47.333V43.6663H51.5003C52.2367 43.6663 52.8337 43.0693 52.8337 42.333C52.8337 41.5967 52.2367 40.9997 51.5003 40.9997H51.167V32.6663C51.167 31.93 50.57 31.333 49.8337 31.333C49.0973 31.333 48.5003 31.93 48.5003 32.6663V40.9997H43.4165L44.8143 32.8928C44.9393 32.1673 44.4525 31.4777 43.7268 31.3525Z" fill="black"/>
<path d="M24.934 50.7478C25.0071 50.0152 24.4726 49.3617 23.74 49.2885L20.4772 48.9622C19.9817 48.9127 19.4585 49.148 19.1845 49.633C19.0768 49.824 19.1333 49.6723 18.168 53.0807C17.9673 53.7892 18.379 54.5262 19.0875 54.7268C19.7952 54.927 20.5328 54.5168 20.7337 53.8073L20.7972 53.5832C30.7501 67.7566 52.5799 66.6415 60.8324 50.9082C61.1746 50.256 60.9232 49.4502 60.2711 49.108C59.6192 48.7658 58.8131 49.0172 58.4711 49.6693C50.9929 63.925 31.4408 64.3953 22.8588 51.8803L23.4743 51.9418C24.2068 52.0152 24.8605 51.4805 24.934 50.7478Z" fill="black"/>
<path d="M60.9113 25.2736C60.2021 25.0731 59.4658 25.4846 59.265 26.1931L59.2015 26.4176C49.2625 12.2635 27.427 13.3445 19.1661 29.0925C18.6976 29.9856 19.3544 31.0455 20.3457 31.0455C20.8256 31.0455 21.2892 30.7856 21.5276 30.3313C29.0052 16.0765 48.5572 15.6045 57.1396 28.1203L56.524 28.0586C55.7916 27.9851 55.138 28.5198 55.0647 29.2526C54.9913 29.9853 55.526 30.6388 56.2586 30.712C59.2423 31.0105 59.4483 31.0318 59.5523 31.0398C60.0283 31.0768 60.4873 30.8553 60.7536 30.4651C60.922 30.2191 60.8475 30.3911 61.8306 26.92C62.0315 26.2113 61.6198 25.4743 60.9113 25.2736Z" fill="black"/>
</g>
<defs>
<clipPath id="clip0">
<rect width="80" height="80" fill="white"/>
</clipPath>
</defs>
</svg>
