<svg width="14" height="14" viewBox="0 0 14 14" fill="none" xmlns="http://www.w3.org/2000/svg">
<g clip-path="url(#clip0)">
<path d="M13.9097 3.8704C14.0265 3.74954 14.0231 3.55691 13.9022 3.44016C13.7843 3.32628 13.5974 3.32628 13.4795 3.44016L7.00047 9.91858L0.522044 3.43956C0.405292 3.3187 0.212691 3.31536 0.0918036 3.43208C-0.0290565 3.54884 -0.0323935 3.74143 0.0843296 3.86232C0.0867834 3.86486 0.0892649 3.86734 0.0918036 3.8698L6.78565 10.5636C6.90445 10.6824 7.09705 10.6824 7.21589 10.5636L13.9097 3.8704Z" fill="#696969"/>
<path d="M0.00341606 3.65491C0.0031023 3.48687 0.139109 3.35041 0.307149 3.3501C0.388159 3.34996 0.46589 3.38213 0.52311 3.4395L7.00153 9.91852L13.4799 3.4395C13.5989 3.32052 13.7918 3.32052 13.9108 3.4395C14.0297 3.55847 14.0297 3.75136 13.9108 3.87033L7.21692 10.5642C7.09812 10.683 6.90552 10.683 6.78668 10.5642L0.0928698 3.87033C0.0356207 3.81328 0.00341606 3.73575 0.00341606 3.65491Z" fill="#696969"/>
</g>
<defs>
<clipPath id="clip0">
<rect width="14" height="14" fill="white" transform="translate(14) rotate(90)"/>
</clipPath>
</defs>
</svg>
