<svg width="99" height="99" viewBox="0 0 99 99" fill="none" xmlns="http://www.w3.org/2000/svg">
<path d="M83.4542 29.2154C83.3107 28.7192 83.1083 28.2342 82.8401 27.7705C82.2215 26.6987 82.2215 25.3678 82.8401 24.2961C83.9927 22.2998 83.9927 19.9175 82.8401 17.9212C81.6883 15.925 79.624 14.7331 77.3196 14.7331C76.0824 14.7331 74.929 14.0676 74.3104 12.9959C72.8262 10.4255 69.7665 9.2737 67.0164 10.0585C65.6221 7.66866 63.1424 6.24264 60.3734 6.24264C58.6664 6.24264 57.0765 5.32418 56.223 3.84604C54.8325 1.43811 52.3422 0 49.5612 0C46.7801 0 44.2899 1.43811 42.8993 3.84604C42.0458 5.32418 40.4559 6.24264 38.7489 6.24264C35.9799 6.24264 33.5003 7.66866 32.106 10.0585C29.3559 9.2737 26.2961 10.4255 24.8119 12.9959C24.1933 14.0676 23.0407 14.7331 21.8028 14.7331C19.4983 14.7331 17.4341 15.925 16.2822 17.9212C15.1296 19.9168 15.1296 22.2998 16.2822 24.2961C16.9008 25.3678 16.9008 26.6987 16.2822 27.7705C16.0141 28.2342 15.8117 28.7192 15.6682 29.2154C14.5405 29.6112 13.7285 30.6845 13.7285 31.9458V41.9847C13.7285 43.5814 15.0276 44.8805 16.6251 44.8805H18.0421L34.5003 69.5731C34.0199 70.2318 33.8598 71.0558 34.066 71.8489L35.7669 78.3891C35.9663 79.158 36.4852 79.7758 37.1575 80.1203L34.3862 91.9847C34.0161 93.5663 34.3334 95.2408 35.2556 96.5777C36.1522 97.8776 37.5533 98.7432 39.0994 98.9509C39.3388 98.9834 39.5926 99 39.8524 99C41.5481 99 42.4726 98.3096 43.1478 97.8051C43.6811 97.4063 43.9749 97.1873 44.7068 97.1873C45.4387 97.1873 45.7325 97.4063 46.2658 97.8051C46.941 98.3096 47.8663 99 49.5612 99C51.2568 99 52.1806 98.3096 52.8558 97.8051C53.3898 97.4071 53.6837 97.1873 54.4148 97.1873C55.1467 97.1873 55.4405 97.4071 55.9745 97.8051C56.649 98.3096 57.5743 99 59.2692 99C59.529 99 59.782 98.9834 60.023 98.9509C61.5691 98.7432 62.9702 97.8776 63.8667 96.5777C64.789 95.2401 65.1062 93.5663 64.7369 91.9847L61.9649 80.1203C62.6371 79.7766 63.156 79.1588 63.3562 78.3899L65.0564 71.8489C65.2626 71.0565 65.1024 70.2325 64.6221 69.5731L72.4342 57.8522C72.8783 57.186 72.6986 56.2857 72.0324 55.8416C71.3655 55.3975 70.4651 55.5772 70.021 56.2442L61.8818 68.4553H52.2682C51.4676 68.4553 50.818 69.1041 50.818 69.9055C50.818 70.7061 51.4676 71.3557 52.2682 71.3557H62.1877L60.5857 77.519H52.0718C52.0673 77.519 52.0635 77.519 52.059 77.519H47.0664C47.0596 77.519 47.0528 77.519 47.0467 77.519H38.5374L36.9347 71.3557H47.043C47.8444 71.3557 48.4932 70.7061 48.4932 69.9055C48.4932 69.1041 47.8444 68.4553 47.043 68.4553H37.2413L21.5278 44.8805H77.5953L72.9977 51.778C72.5536 52.4442 72.7341 53.3445 73.4003 53.7887C73.6472 53.9533 73.9267 54.0326 74.2032 54.0326C74.6722 54.0326 75.1322 53.8053 75.4117 53.3861L81.0803 44.8805H82.4972C84.0947 44.8805 85.3938 43.5814 85.3938 41.9839V31.9458C85.3938 30.6845 84.5819 29.6112 83.4542 29.2154ZM61.4792 94.9311C61.0396 95.5694 60.3848 95.9757 59.6362 96.077C59.5237 96.0921 59.3998 96.0996 59.2692 96.0996C58.5373 96.0996 58.2435 95.8798 57.7102 95.4818C57.035 94.9772 56.1105 94.2869 54.4156 94.2869C52.7199 94.2869 51.7954 94.9772 51.1201 95.4818C50.5869 95.8798 50.2931 96.0996 49.5612 96.0996C48.8293 96.0996 48.5355 95.8798 48.0022 95.4818C47.327 94.9772 46.4025 94.2869 44.7068 94.2869C43.0119 94.2869 42.0874 94.9772 41.4121 95.4818C40.8781 95.8798 40.5843 96.0996 39.8524 96.0996C39.7218 96.0996 39.5986 96.0921 39.4868 96.077C38.7383 95.9757 38.0835 95.5694 37.6439 94.9319C37.1847 94.2657 37.0268 93.4319 37.2103 92.6448L40.0669 80.4194H45.0497L42.8925 87.091C42.6463 87.8531 43.064 88.6711 43.8261 88.9174C43.9741 88.9657 44.1245 88.9884 44.2725 88.9884C44.8843 88.9884 45.453 88.5979 45.6517 87.9838L48.0981 80.4194H51.025L53.4714 87.9838C53.6701 88.5979 54.2388 88.9884 54.8506 88.9884C54.9986 88.9884 55.149 88.965 55.2977 88.9174C56.0599 88.6711 56.4775 87.8531 56.2313 87.091L54.0734 80.4194H59.0569L61.9128 92.6448C62.0963 93.4319 61.9384 94.265 61.4792 94.9311ZM71.7982 14.4461C72.9335 16.4121 75.0491 17.6335 77.3196 17.6335C78.5756 17.6335 79.7003 18.283 80.3287 19.3714C80.9571 20.4591 80.9571 21.7575 80.3287 22.8459C79.1935 24.8119 79.1935 27.2546 80.3287 29.2207C80.9571 30.3083 80.9571 31.6075 80.3287 32.6951C79.7011 33.7828 78.5756 34.4323 77.3196 34.4323C75.0491 34.4323 72.9335 35.6537 71.7982 37.6197C71.1706 38.7081 70.0459 39.3577 68.7899 39.3577C67.533 39.3577 66.4084 38.7081 65.7799 37.6197C64.6447 35.6537 62.5298 34.4323 60.2594 34.4323C59.8832 34.4323 59.5214 34.3749 59.18 34.2654C59.5653 34.1657 59.9656 34.1121 60.3734 34.1121C62.5404 34.1121 64.5291 33.2352 65.9605 31.7094C66.8344 32.1437 67.8057 32.3764 68.7891 32.3764C72.2869 32.3764 75.1329 29.5311 75.1329 26.0333C75.1329 22.5354 72.2869 19.6902 68.7891 19.6902C67.959 19.6902 67.1486 19.8526 66.3963 20.1592C66.3993 19.3367 66.6115 18.5149 67.0353 17.7815C67.9288 16.2331 68.2453 14.4921 67.99 12.8063C69.3352 12.5057 70.9432 12.9657 71.7982 14.4461ZM42.635 36.1038C42.7286 36.2345 42.8185 36.3682 42.8993 36.5079C44.2899 38.9166 46.7801 40.3547 49.5612 40.3547C52.3422 40.3547 54.8325 38.9166 56.223 36.5079C56.3038 36.3682 56.3929 36.2352 56.4866 36.1061C57.5637 36.9037 58.8636 37.3327 60.2594 37.3327C61.4966 37.3327 62.6499 37.9989 63.2685 39.0707C64.0971 40.5058 65.3985 41.5217 66.9205 41.9809L32.1958 41.9832C33.7201 41.5247 35.0245 40.508 35.8538 39.0707C36.4732 37.9989 37.6258 37.3327 38.863 37.3327C40.2512 37.3327 41.5549 36.9022 42.635 36.1038ZM67.2415 22.9584C67.7173 22.7182 68.2453 22.5906 68.7891 22.5906C70.6879 22.5906 72.2326 24.1352 72.2326 26.0333C72.2326 27.9314 70.6879 29.476 68.7891 29.476C68.3503 29.476 67.9273 29.3929 67.5315 29.2373C68.3435 27.1995 68.2468 24.9426 67.2415 22.9584ZM38.7489 9.14303C41.4884 9.14303 44.0414 7.66866 45.4115 5.29623C46.2778 3.79619 47.8285 2.90039 49.5612 2.90039C51.2939 2.90039 52.8453 3.79619 53.7116 5.29699C55.081 7.66866 57.6339 9.14303 60.3734 9.14303C62.1061 9.14303 63.6575 10.0388 64.5239 11.5389C65.3894 13.0389 65.3894 14.8305 64.5231 16.3313C63.1537 18.7037 63.1537 21.651 64.5231 24.0234C65.3894 25.5242 65.3894 27.315 64.5239 28.8158C63.6575 30.3159 62.1061 31.2117 60.3734 31.2117C57.6339 31.2117 55.081 32.6853 53.7116 35.0577C52.8453 36.5585 51.2939 37.4543 49.5612 37.4543C47.8285 37.4543 46.2778 36.5585 45.4115 35.0577C44.0414 32.6853 41.4884 31.2117 38.7489 31.2117C37.017 31.2117 35.4656 30.3159 34.5992 28.8151C33.7329 27.315 33.7329 25.5234 34.5992 24.0234C35.9686 21.651 35.9686 18.703 34.5992 16.3306C33.7329 14.8305 33.7329 13.0389 34.5992 11.5389C35.4656 10.0388 37.017 9.14303 38.7489 9.14303ZM31.5916 29.2373C31.1958 29.3929 30.7721 29.476 30.3332 29.476C28.4344 29.476 26.8898 27.9314 26.8898 26.0333C26.8898 24.1352 28.4344 22.5906 30.3332 22.5906C30.8771 22.5906 31.4058 22.7182 31.8816 22.9576C30.8756 24.9426 30.7796 27.2002 31.5916 29.2373ZM18.7936 22.8459C18.166 21.7575 18.166 20.4591 18.7936 19.3714C19.422 18.283 20.5467 17.6335 21.8035 17.6335C24.0732 17.6335 26.1889 16.4129 27.3241 14.4461C28.1791 12.9657 29.7872 12.5057 31.1331 12.8063C30.8778 14.4921 31.1935 16.2331 32.0878 17.7815C32.5108 18.5149 32.7238 19.3367 32.7268 20.1592C31.9745 19.8526 31.1633 19.6902 30.3332 19.6902C26.8354 19.6902 23.9902 22.5354 23.9902 26.0333C23.9902 29.5311 26.8354 32.3764 30.3332 32.3764C31.3182 32.3764 32.2887 32.1445 33.1626 31.7094C34.5932 33.2359 36.5819 34.1121 38.7497 34.1121C39.1568 34.1121 39.5563 34.1657 39.9415 34.2654C39.6001 34.3749 39.2376 34.4331 38.8637 34.4331C36.5933 34.4331 34.4776 35.6544 33.3424 37.6205C32.7147 38.7081 31.5893 39.3577 30.3332 39.3577C29.0772 39.3577 27.9525 38.7081 27.3241 37.6205C26.1889 35.6544 24.0732 34.4331 21.8035 34.4331C20.5475 34.4331 19.422 33.7835 18.7936 32.6959C18.166 31.6082 18.166 30.3091 18.7936 29.2214C19.9289 27.2546 19.9289 24.8119 18.7936 22.8459ZM16.6259 34.674C17.8193 36.3485 19.7113 37.3327 21.8035 37.3327C23.0407 37.3327 24.1933 37.9989 24.8127 39.0707C25.642 40.508 26.9464 41.5254 28.4714 41.9839H18.885C18.8405 41.9816 18.7959 41.9816 18.7513 41.9839L16.6297 41.9847L16.6259 34.674ZM80.3015 41.9801C80.2985 41.9801 80.2955 41.9801 80.2932 41.9801L70.6592 41.9809C72.1812 41.5217 73.4818 40.5058 74.3104 39.0707C74.929 37.9989 76.0824 37.3335 77.3196 37.3335C79.4103 37.3335 81.3016 36.3501 82.4949 34.677L82.4972 41.9801H80.3015Z" fill="black"/>
<path d="M49.5618 28.1382C53.9509 28.1382 57.522 24.5671 57.522 20.178C57.522 15.7889 53.9509 12.2178 49.5618 12.2178C45.1727 12.2178 41.6016 15.7889 41.6016 20.178C41.6016 24.5671 45.1727 28.1382 49.5618 28.1382ZM49.5618 15.1182C52.3519 15.1182 54.6216 17.3879 54.6216 20.178C54.6216 22.9673 52.3519 25.2378 49.5618 25.2378C46.7717 25.2378 44.502 22.9681 44.502 20.178C44.502 17.3879 46.7717 15.1182 49.5618 15.1182Z" fill="black"/>
</svg>
