<svg width="80" height="80" viewBox="0 0 80 80" fill="none" xmlns="http://www.w3.org/2000/svg">
<g clip-path="url(#clip0)">
<path d="M74.4712 29.2905C73.8241 29.2905 73.2994 29.8151 73.2994 30.4624V38.1349C73.2994 41.0744 72.8076 43.9722 71.8378 46.7476L70.202 51.4285C70.1545 51.5646 70.1325 51.7083 70.137 51.8524L70.9573 77.6568H51.8656L53.5038 51.8894C53.5214 51.6108 53.4391 51.3351 53.2716 51.1116L50.2908 47.1396C49.9024 46.6219 49.1678 46.5172 48.6502 46.9057C48.1325 47.2941 48.0278 48.0288 48.4163 48.5465L51.1374 52.1724L49.4474 78.7543C49.4269 79.0772 49.5408 79.3944 49.7624 79.6304C49.9838 79.8665 50.2931 80.0004 50.6169 80.0004H72.1672C72.4844 80.0004 72.7881 79.8718 73.0089 79.6439C73.2297 79.416 73.3486 79.1083 73.3384 78.7913L72.4866 51.9957L74.0505 47.5205C75.1073 44.4961 75.6431 41.3383 75.6431 38.1347V30.4622C75.6431 29.8151 75.1184 29.2905 74.4712 29.2905Z" fill="black"/>
<path d="M71.3457 8.20609C70.6426 8.20609 69.9785 8.37578 69.3919 8.67641V5.84078C69.3919 3.47109 67.4641 1.54328 65.0944 1.54328C64.1876 1.54328 63.3455 1.82563 62.6513 2.30703C61.9323 0.936719 60.4951 0 58.8432 0C56.6249 0 54.7938 1.68938 54.569 3.84906C53.9769 3.54094 53.3043 3.36672 52.5921 3.36672C50.2224 3.36672 48.2946 5.29453 48.2946 7.66422V17.6995C47.5791 17.2772 46.7426 17.0361 45.8463 17.0361C43.201 17.0361 41.0488 19.1881 41.0488 21.8336V36.2692C41.0488 37.855 41.573 39.427 42.5251 40.6956L45.2121 44.2763C45.4424 44.5831 45.7941 44.7448 46.1502 44.7447C46.3949 44.7447 46.6418 44.6684 46.8527 44.5102C47.3704 44.1217 47.4751 43.387 47.0866 42.8694L44.3996 39.2887C43.7502 38.4234 43.3926 37.3511 43.3926 36.2692V21.8336C43.3926 20.4806 44.4934 19.3798 45.8463 19.3798C47.1802 19.3798 48.2557 20.4253 48.2951 21.7602C48.2963 21.8025 48.2946 36.5089 48.2946 36.5089C48.2946 37.1562 48.8193 37.6808 49.4665 37.6808C50.1137 37.6808 50.6384 37.1562 50.6384 36.5089V7.66422C50.6384 6.58687 51.5148 5.71047 52.5921 5.71047C53.6694 5.71047 54.5458 6.58687 54.5458 7.66437V23.362C54.5458 24.0094 55.0705 24.5339 55.7177 24.5339C56.3649 24.5339 56.8896 24.0094 56.8896 23.362V4.2975C56.8896 3.22016 57.766 2.34375 58.8433 2.34375C59.9207 2.34375 60.7971 3.22016 60.7971 4.2975V23.362C60.7971 24.0094 61.3218 24.5339 61.969 24.5339C62.6162 24.5339 63.1408 24.0094 63.1408 23.362C63.1408 23.362 63.1408 5.89391 63.1408 5.84078C63.1408 4.76344 64.0173 3.88703 65.0946 3.88703C66.1719 3.88703 67.0483 4.76344 67.0483 5.84078V23.362C67.0483 24.0094 67.573 24.5339 68.2202 24.5339C68.8674 24.5339 69.3921 24.0094 69.3921 23.362C69.3921 23.362 69.3921 12.5567 69.3921 12.5036C69.3921 11.4263 70.2685 10.5498 71.3458 10.5498C72.4232 10.5498 73.2996 11.4263 73.2996 12.5036V25.1767C73.2996 25.8241 73.8243 26.3486 74.4715 26.3486C75.1187 26.3486 75.6433 25.8241 75.6433 25.1767V12.5034C75.6432 10.1338 73.7154 8.20609 71.3457 8.20609Z" fill="black"/>
<path d="M34.1525 17.0359C33.2562 17.0359 32.4197 17.277 31.7042 17.6994V7.66422C31.7042 5.29453 29.7764 3.36672 27.4067 3.36672C26.6944 3.36672 26.0219 3.54094 25.4297 3.84906C25.2047 1.68938 23.3737 0 21.1555 0C19.5036 0 18.0664 0.936719 17.3473 2.30703C16.6533 1.82563 15.8109 1.54328 14.9042 1.54328C12.5345 1.54328 10.6067 3.47109 10.6067 5.84078V8.67625C10.0203 8.37562 9.35609 8.20594 8.65297 8.20594C6.28328 8.20594 4.35547 10.1338 4.35547 12.5034V38.1344C4.35547 41.338 4.89141 44.4958 5.94812 47.5203L7.51203 51.9953L6.66016 78.7909C6.65016 79.108 6.76891 79.4156 6.98969 79.6436C7.21047 79.8714 7.51406 80 7.83141 80H29.3817C29.7055 80 30.0147 79.8661 30.2362 79.6302C30.4578 79.3941 30.5717 79.0769 30.5512 78.7539L30.0786 71.3183C30.0375 70.6722 29.4828 70.1795 28.8347 70.2231C28.1887 70.2642 27.6986 70.8209 27.7395 71.4669L28.133 77.6562H9.04125L9.86156 51.8519C9.86609 51.7078 9.84406 51.5641 9.79656 51.428L8.16078 46.7472C7.19094 43.9717 6.69922 41.0739 6.69922 38.1344V12.5034C6.69922 11.4261 7.57562 10.5497 8.65297 10.5497C9.73031 10.5497 10.6067 11.4261 10.6067 12.5034V23.3619C10.6067 24.0092 11.1314 24.5338 11.7786 24.5338C12.4258 24.5338 12.9505 24.0092 12.9505 23.3619V5.84078C12.9505 4.76344 13.8269 3.88703 14.9042 3.88703C15.9816 3.88703 16.858 4.76344 16.858 5.84078V23.362C16.858 24.0094 17.3827 24.5339 18.0298 24.5339C18.677 24.5339 19.2017 24.0094 19.2017 23.362V4.2975C19.2017 3.22016 20.0781 2.34375 21.1555 2.34375C22.2328 2.34375 23.1092 3.22016 23.1092 4.2975V23.362C23.1092 24.0094 23.6339 24.5339 24.2811 24.5339C24.9283 24.5339 25.453 24.0094 25.453 23.362C25.453 23.362 25.453 7.7175 25.453 7.66437C25.453 6.58687 26.3294 5.71047 27.4067 5.71047C28.4841 5.71047 29.3605 6.58687 29.3605 7.66422V36.5088C29.3605 37.1561 29.8852 37.6806 30.5323 37.6806C31.1795 37.6806 31.7042 37.1561 31.7042 36.5088C31.7042 36.5088 31.7025 21.8023 31.7037 21.76C31.7431 20.4252 32.8187 19.3797 34.1525 19.3797C35.5055 19.3797 36.6062 20.4805 36.6062 21.8334V36.2691C36.6062 37.3509 36.2486 38.4233 35.5992 39.2886L26.727 51.1111C26.5594 51.3345 26.477 51.6102 26.4948 51.8889L27.4053 66.2089C27.4462 66.8548 28.0012 67.3413 28.6492 67.3042C29.2952 67.263 29.7853 66.7063 29.7444 66.0603L28.8614 52.1719L37.4739 40.6955C38.4259 39.4269 38.9501 37.8548 38.9501 36.2691V21.8334C38.95 19.1881 36.7978 17.0359 34.1525 17.0359Z" fill="black"/>
</g>
<defs>
<clipPath id="clip0">
<rect width="80" height="80" fill="white"/>
</clipPath>
</defs>
</svg>
