<svg width="80" height="80" viewBox="0 0 80 80" fill="none" xmlns="http://www.w3.org/2000/svg">
<g clip-path="url(#clip0)">
<path d="M61.7412 61.7413C56.8523 66.6306 50.3519 69.323 43.4375 69.323C42.5747 69.323 41.875 70.0227 41.875 70.8856C41.875 71.7484 42.5747 72.4481 43.4375 72.4481C51.1866 72.4481 58.4717 69.4304 63.9509 63.951C64.5611 63.3409 64.5611 62.3515 63.9509 61.7412C63.3406 61.1312 62.3516 61.1312 61.7412 61.7413Z" fill="black"/>
<path d="M78.4375 41.875H76.4836C76.811 41.3411 77.0636 40.757 77.2304 40.1352C77.6839 38.4419 77.4511 36.6734 76.5747 35.1555C76.4819 34.9947 76.3819 34.8406 76.2779 34.6908C76.4266 34.6191 76.5738 34.5431 76.7182 34.4597C79.8519 32.6503 80.9293 28.6289 79.12 25.4952C78.5177 24.4519 77.6608 23.6125 76.6339 23.0423L78.2222 17.115C78.4457 16.2816 77.951 15.4248 77.1174 15.2014C76.2835 14.9781 75.4272 15.4728 75.2038 16.3062L73.6204 22.2155C72.4171 22.1795 71.2244 22.4761 70.1557 23.093C68.805 23.8727 67.7979 25.0795 67.2722 26.5284C65.3729 25.1025 63.1829 24.112 60.8582 23.6266C58.7741 16.8745 52.5004 12.2142 45.3763 12.2142C43.1741 12.2142 41.0596 12.658 39.1243 13.4653L30.5497 1.2625C29.9941 0.472031 29.0855 0 28.1193 0C27.153 0 26.2444 0.472031 25.6886 1.26266L10.7305 22.5509C10.7099 22.5803 10.6919 22.6109 10.6736 22.6413C10.1447 23.402 9.73989 24.2581 9.49192 25.1833C9.44176 25.3706 9.39817 25.5586 9.36161 25.7472C9.17989 25.6847 8.99536 25.6283 8.80801 25.5781C5.70145 24.7459 2.38114 25.8217 0.3502 28.3197C0.0694189 28.665 -0.0507373 29.1134 0.0197315 29.5528C0.438638 32.1644 2.09114 34.3789 4.3902 35.5481C4.35645 35.6614 4.32051 35.7736 4.28973 35.8884C3.75676 37.8775 3.71676 39.912 4.15676 41.875H1.56254C0.699731 41.875 4.39531e-05 42.5747 4.39531e-05 43.4375C4.39531e-05 53.2038 3.80317 62.3855 10.709 69.2911C17.6147 76.1969 26.7963 80 36.5625 80H43.4375C50.3169 80 57.02 78.0788 62.8224 74.4437C63.5538 73.9855 63.7752 73.0213 63.3171 72.2902C62.8588 71.5588 61.8946 71.3377 61.1635 71.7955C55.859 75.1186 49.7294 76.875 43.4375 76.875H36.5625C18.6483 76.875 3.97942 62.7156 3.16098 45H76.8393C76.549 51.3325 74.4941 57.3828 70.8529 62.5863C70.3582 63.2931 70.5302 64.2675 71.2372 64.7623C71.9439 65.2572 72.9185 65.085 73.4133 64.378C77.7224 58.2205 80 50.9792 80 43.4375C80 42.5747 79.3005 41.875 78.4375 41.875ZM69.1725 35.4598C69.7024 35.1541 70.29 34.9978 70.8858 34.9978C71.1191 34.9978 71.3538 35.0227 71.5864 35.0709C71.6371 35.0858 71.6871 35.1019 71.7382 35.1156C71.7874 35.1287 71.8372 35.1383 71.8866 35.1503C72.726 35.4041 73.4277 35.9553 73.8683 36.7181C74.3274 37.5133 74.4494 38.4397 74.2118 39.3264C73.9741 40.2133 73.4054 40.9545 72.61 41.4136C70.9686 42.3611 68.8622 41.7969 67.9143 40.1555C66.9666 38.5139 67.5311 36.4075 69.1725 35.4598ZM70.1163 27.887C70.354 27 70.9229 26.2587 71.718 25.7997C72.258 25.488 72.848 25.34 73.431 25.34C74.6197 25.34 75.7777 25.9564 76.4136 27.058C77.3613 28.6995 76.7969 30.8059 75.1555 31.7537C74.393 32.1937 73.5108 32.3206 72.6574 32.1211C72.5938 32.1033 72.5297 32.087 72.4657 32.0711C71.6155 31.8208 70.9046 31.2659 70.4597 30.4955C70.3366 30.2822 70.2397 30.0591 70.1655 29.8303C70.1577 29.6352 70.114 29.4408 70.0325 29.258C69.9688 28.8058 69.9947 28.3413 70.1163 27.887ZM67.1264 30.5864C67.2732 31.0944 67.4824 31.5881 67.7536 32.0578C67.8463 32.2183 67.9461 32.3727 68.0504 32.5231C67.9021 32.5945 67.7549 32.6698 67.6102 32.7534C66.0921 33.6297 65.0063 35.045 64.5527 36.7381C64.0989 38.4314 64.3318 40.1998 65.2082 41.718C65.2393 41.7717 65.2736 41.8223 65.3061 41.875H49.1008C49.2174 41.0867 49.2782 40.2884 49.2782 39.4861C49.2782 36.5903 48.5138 33.8702 47.1775 31.5152C49.6489 28.3027 53.4635 26.4086 57.5455 26.4086C61.1877 26.4086 64.654 27.9261 67.1264 30.5864ZM28.7466 41.875C29.7875 37.1942 28.0546 32.4806 24.5888 29.5377C26.9418 27.5325 29.9518 26.4086 33.0757 26.4086C40.2866 26.4086 46.1532 32.2752 46.1532 39.4861C46.1532 40.2911 46.0785 41.0905 45.9338 41.875H28.7466ZM57.4074 23.2856C52.7235 23.3253 48.335 25.3747 45.305 28.8689C42.3866 25.5117 38.1118 23.3644 33.3427 23.2869C34.5358 20.4766 36.6582 18.2178 39.2904 16.837C39.3196 16.8227 39.3488 16.8083 39.3774 16.7919C41.1863 15.8602 43.23 15.3395 45.3763 15.3395C50.6704 15.3395 55.3802 18.5283 57.4074 23.2856ZM28.1193 3.23922L36.3502 14.9536C33.3414 16.9684 31.0271 19.9802 29.9049 23.5994C26.8994 24.2009 24.1055 25.6466 21.8724 27.7823C21.3541 27.5355 20.8146 27.3202 20.2533 27.143C20.6888 24.3019 19.5929 21.4011 17.3282 19.56C17.1811 19.4405 17.0147 19.352 16.8389 19.2931L28.1193 3.23922ZM12.3386 27.2506C12.3425 26.8286 12.3991 26.4075 12.5105 25.9922C12.9616 24.3089 14.2493 22.9914 15.8849 22.4808C16.9008 23.5833 17.3774 25.0875 17.1785 26.5742C15.5085 26.4777 13.8675 26.7191 12.3386 27.2506ZM3.27114 29.7633C4.53098 28.6022 6.31598 28.1459 7.99942 28.5967C8.35676 28.6925 8.69754 28.8255 9.01989 28.993C7.67911 29.9725 6.52708 31.2191 5.65145 32.6798C4.51958 32.0537 3.66036 31.0102 3.27114 29.7633ZM7.30833 36.697C8.65958 31.6542 13.8613 28.6512 18.9049 30.0019C23.9477 31.3531 26.9511 36.5552 25.6 41.5983L25.5258 41.875H7.38645C6.87629 40.1941 6.84583 38.4231 7.30833 36.697Z" fill="black"/>
<path d="M67.5469 67.2466C67.1359 67.2466 66.7328 67.4138 66.4422 67.7044C66.1517 67.995 65.9844 68.3981 65.9844 68.8091C65.9844 69.22 66.1516 69.6231 66.4422 69.9138C66.7328 70.2042 67.1359 70.3716 67.5469 70.3716C67.9578 70.3716 68.3609 70.2044 68.6516 69.9138C68.942 69.6231 69.1094 69.22 69.1094 68.8091C69.1094 68.3981 68.9422 67.995 68.6516 67.7044C68.3609 67.4138 67.9578 67.2466 67.5469 67.2466Z" fill="black"/>
</g>
<defs>
<clipPath id="clip0">
<rect width="80" height="80" fill="white"/>
</clipPath>
</defs>
</svg>
