<svg width="80" height="80" viewBox="0 0 80 80" fill="none" xmlns="http://www.w3.org/2000/svg">
<g clip-path="url(#clip0)">
<path d="M47.348 9.62202C46.5077 9.41968 45.665 9.93608 45.4628 10.7748C45.2606 11.6137 45.7767 12.4578 46.6156 12.66C59.28 15.7129 68.1248 26.9557 68.1248 40.0003C68.1248 55.5084 55.5081 68.1252 39.9999 68.1252C24.4917 68.1252 11.875 55.5084 11.875 40.0003C11.875 26.9562 20.7193 15.7134 33.383 12.6601C34.2219 12.4578 34.738 11.6137 34.5358 10.775C34.3335 9.93608 33.4891 9.42031 32.6507 9.62218C25.9507 11.2376 19.8806 15.1106 15.5586 20.5276C11.1044 26.1102 8.75 32.8438 8.75 40.0003C8.75 57.2315 22.7687 71.2502 39.9999 71.2502C57.2311 71.2502 71.2497 57.2317 71.2497 40.0003C71.2497 32.8437 68.8954 26.1099 64.4409 20.5271C60.1187 15.1103 54.0483 11.2373 47.348 9.62202Z" fill="white"/>
<path d="M79.0585 36.2417L77.2306 32.8313L77.5354 28.615C77.8285 25.9126 76.7506 23.2751 74.6481 21.5551L71.6137 19.0704L70.4201 15.4748C69.7517 12.7256 67.6637 10.5159 64.9547 9.69762L61.2092 8.56606L58.3408 5.25045C56.6436 3.25405 54.0747 2.21562 51.4686 2.47171L47.5811 2.85905L43.7597 0.942028C41.4048 -0.313436 38.597 -0.31453 36.2417 0.941871L32.8314 2.76968L28.6153 2.46468C25.9117 2.17155 23.2751 3.24967 21.5553 5.35201L19.0705 8.38637L15.475 9.57996C12.7257 10.2484 10.516 12.3364 9.6977 15.0453L8.56629 18.7907L5.25068 21.6593C3.25444 23.3565 2.21538 25.9249 2.47179 28.5315L2.85913 32.4189L0.942106 36.2403C-0.313514 38.5955 -0.314452 41.4031 0.941793 43.7586L2.76975 47.1689L2.46476 51.3851C2.17179 54.0876 3.24975 56.7249 5.35209 58.4451L8.38645 60.9298L9.58004 64.5254C10.2483 67.2746 12.3363 69.4843 15.0455 70.3025L18.7908 71.4339L21.6594 74.7497C23.3567 76.7459 25.9245 77.785 28.5315 77.5284L32.4189 77.1411L36.2399 79.0578C37.4179 79.6859 38.7091 80.0002 40.0004 80.0002C41.2907 80.0002 42.581 79.6864 43.7583 79.0584L47.1688 77.2306L51.3849 77.5356C54.0872 77.8281 56.7247 76.7506 58.445 74.6483L60.9297 71.6139L64.5254 70.4205C67.2745 69.7521 69.484 67.6641 70.3023 64.9551L71.4339 61.2098L74.7496 58.3412C76.7459 56.644 77.7849 54.0756 77.5285 51.4689L77.141 47.5817L79.0579 43.7603C80.3135 41.405 80.3148 38.5972 79.0585 36.2417ZM76.2937 42.302C76.2868 42.3148 76.2801 42.3276 76.2737 42.3405L74.1446 46.585C74.012 46.8493 73.9571 47.1461 73.9864 47.4406L74.4187 51.7765C74.5746 53.362 73.9417 54.926 72.7153 55.9688L69.0468 59.1426C68.8231 59.3362 68.659 59.5891 68.5736 59.8723L67.3109 64.0512C66.8076 65.7174 65.4403 66.9985 63.7426 67.3943C63.6962 67.4051 63.6503 67.418 63.6051 67.433L59.5155 68.7904C59.2347 68.8836 58.9861 69.0546 58.7988 69.2835L56.0269 72.6688C54.9741 73.9557 53.3567 74.6128 51.7017 74.4266C51.6811 74.4242 51.6603 74.4224 51.6399 74.4208L46.9427 74.0811C46.6469 74.0599 46.3526 74.1227 46.0919 74.2624L42.2851 76.3027C40.8494 77.0683 39.1348 77.0652 37.6981 76.2938C37.6852 76.287 37.6724 76.2803 37.6596 76.2739L33.4153 74.1449C33.1971 74.0355 32.9571 73.9789 32.7146 73.9789C32.6631 73.9789 32.6114 73.9814 32.5596 73.9866L28.2237 74.4186C26.6384 74.5752 25.0742 73.9416 24.0314 72.7153L20.8577 69.0469C20.6642 68.8232 20.4111 68.659 20.1278 68.5735L15.9489 67.3111C14.2825 66.8079 13.0016 65.4405 12.6058 63.7427C12.595 63.6963 12.5821 63.6505 12.5671 63.6052L11.2097 59.5154C11.1166 59.2346 10.9457 58.9862 10.7168 58.7988L7.33161 56.0268C6.04474 54.974 5.38756 53.3571 5.57381 51.7018C5.57615 51.6812 5.57802 51.6606 5.57959 51.6398L5.91927 46.9425C5.94068 46.6475 5.87771 46.3525 5.73802 46.0917L3.69756 42.2851C2.93194 40.8495 2.93522 39.1348 3.70631 37.6981C3.71319 37.6855 3.71975 37.6727 3.72616 37.6599L5.85521 33.4153C5.98787 33.151 6.04271 32.8542 6.01334 32.5599L5.58131 28.2236C5.42537 26.6382 6.05834 25.0741 7.28474 24.0313L10.9532 20.8576C11.1769 20.664 11.341 20.411 11.4266 20.1279L12.6891 15.9488C13.1924 14.2826 14.5597 13.0017 16.2575 12.6057C16.3039 12.595 16.3497 12.582 16.395 12.567L20.4845 11.2095C20.7653 11.1164 21.0137 10.9454 21.2011 10.7165L23.9733 7.33122C25.0261 6.04451 26.6434 5.38764 28.2982 5.57357C28.3189 5.57592 28.3395 5.57779 28.3601 5.57935L33.0573 5.91904C33.3515 5.93998 33.6473 5.87748 33.9081 5.73779L37.7148 3.69749C39.1502 2.93186 40.8651 2.93499 42.3016 3.70624C42.3143 3.71295 42.3271 3.71967 42.3401 3.72608L46.5846 5.85513C46.849 5.98779 47.1457 6.04279 47.44 6.01326L51.7761 5.58123C53.3614 5.42498 54.9256 6.05826 55.9685 7.28466L59.1422 10.9531C59.3356 11.1768 59.5887 11.3409 59.872 11.4265L64.0509 12.689C65.7172 13.1923 66.9981 14.5598 67.394 16.2574C67.4048 16.3038 67.4178 16.3496 67.4328 16.3949L68.7903 20.4845C68.8836 20.7652 69.0543 21.0137 69.2832 21.201L72.6685 23.973C73.9554 25.0258 74.6124 26.6426 74.4262 28.298C74.4239 28.3186 74.422 28.3393 74.4206 28.36L74.0809 33.0574C74.0595 33.3524 74.1224 33.6474 74.262 33.9081L76.3024 37.7149C77.0682 39.1508 77.0649 40.8655 76.2937 42.302Z" fill="white"/>
<path d="M33.2173 31.4866C32.9667 30.9585 32.43 30.5924 31.8065 30.5924H23.5508C22.6878 30.5924 21.9883 31.2919 21.9883 32.1549V55.8057C21.9883 56.6687 22.6878 57.3682 23.5508 57.3682H31.8065C32.4542 57.3682 33.0096 56.9743 33.2465 56.4129C34.4376 56.5801 35.6646 56.9189 36.9421 57.2726C38.8627 57.8043 40.8485 58.3542 42.9118 58.3542H51.9319C54.7203 58.3542 56.9799 56.8759 57.9763 54.3995C58.4616 53.1929 58.5466 51.9408 58.263 50.8925C58.7817 50.4261 59.2202 49.8455 59.5517 49.1675C60.2238 47.7937 60.358 46.2489 59.977 44.9478C60.687 44.2619 61.2167 43.3561 61.4936 42.2881C61.7525 41.2897 61.748 40.3046 61.5177 39.451C62.927 38.6219 63.8762 37.1157 63.8762 35.4185C63.8762 34.0874 63.358 32.8608 62.4167 31.9649C61.513 31.1046 60.3092 30.6307 59.0273 30.6307L46.3132 30.631C45.3472 29.4193 45.0466 27.7749 45.5966 26.4513C46.7254 23.7348 46.6554 21.4353 45.3702 18.9956C44.4162 17.1848 41.8509 15.382 39.6948 15.6898C38.3915 15.8761 37.4485 16.7971 37.172 18.154C37.0906 18.5532 37.0682 18.9845 37.0424 19.4839C36.9787 20.7157 36.8912 22.4029 35.8278 24.4402C35.107 25.8213 34.8665 27.2418 34.6543 28.4951C34.3504 30.2904 34.2031 31.1552 33.2173 31.4866ZM25.1133 33.7174H30.244V54.2432H25.1133V33.7174ZM37.7356 29.0166C37.9176 27.9415 38.1057 26.8296 38.5982 25.8863C39.9768 23.2451 40.0935 20.9918 40.1634 19.6456C40.182 19.287 40.1995 18.9482 40.2341 18.7779C40.2343 18.7768 40.2346 18.7756 40.2349 18.7745C40.777 18.782 42.1109 19.5137 42.6054 20.4524C43.4613 22.0768 43.4898 23.3779 42.711 25.2526C42.0087 26.9429 42.0615 28.9043 42.7562 30.6482C41.996 30.754 41.4104 31.4047 41.4104 32.194C41.4104 33.0568 42.1101 33.7565 42.9729 33.7565L59.0273 33.756C59.5034 33.756 59.942 33.9238 60.262 34.2285C60.4853 34.4408 60.7513 34.8199 60.7513 35.4186C60.7513 36.2568 59.983 36.9814 59.0734 37.0013L55.0517 37.0888C54.1891 37.1075 53.5049 37.8221 53.5236 38.6849C53.5422 39.5361 54.2378 40.2135 55.0852 40.2135C55.0966 40.2135 55.1081 40.2135 55.1199 40.2131L58.4692 40.1403C58.5784 40.4499 58.6353 41.0403 58.4053 41.7167C58.2095 42.292 57.6841 43.257 56.3622 43.257C55.4994 43.257 54.7997 43.9566 54.7997 44.8195C54.7997 45.6825 55.4994 46.382 56.3622 46.382C56.5991 46.382 56.8316 46.3673 57.0591 46.3384C57.0785 46.7806 56.9875 47.2986 56.7449 47.7945C56.458 48.3808 55.891 49.0798 54.8188 49.0798C53.956 49.0798 53.2563 49.7794 53.2563 50.6423C53.2563 51.5053 53.956 52.2048 54.8188 52.2048C54.9805 52.2048 55.1405 52.1976 55.2985 52.1834C55.2944 52.4833 55.2335 52.8581 55.063 53.2681C54.818 53.8578 54.0222 55.2292 51.9322 55.2292H42.9121C41.2735 55.2292 39.5748 54.7589 37.7763 54.2609C36.3453 53.8647 34.8779 53.4587 33.3693 53.2775V34.649C36.8871 34.0115 37.3721 31.1636 37.7356 29.0166Z" fill="white"/>
<path d="M40.0005 11.875C40.8634 11.875 41.563 11.1755 41.563 10.3125C41.563 9.44953 40.8634 8.75 40.0005 8.75H39.9994C39.1364 8.75 38.4375 9.44953 38.4375 10.3125C38.4375 11.1755 39.1375 11.875 40.0005 11.875Z" fill="white"/>
</g>
<defs>
<clipPath id="clip0">
<rect width="80" height="80" fill="white"/>
</clipPath>
</defs>
</svg>
