<svg width="74" height="74" viewBox="0 0 74 74" fill="none" xmlns="http://www.w3.org/2000/svg">
<path d="M72.4583 29.2917C73.3104 29.2917 74 28.6022 74 27.75V15.4167C74 12.0156 71.2344 9.25 67.8333 9.25H6.16671C2.76561 9.25 0 12.0156 0 15.4167V27.75C0 28.6022 0.689559 29.2917 1.54171 29.2917C5.7918 29.2917 9.25 32.7499 9.25 37C9.25 41.2501 5.7918 44.7083 1.54171 44.7083C0.689559 44.7083 0 45.3978 0 46.25V58.5833C0 61.9844 2.76561 64.75 6.16671 64.75H67.8334C71.2344 64.75 74 61.9844 74 58.5833V46.25C74 45.3978 73.3104 44.7083 72.4583 44.7083C68.2082 44.7083 64.75 41.2501 64.75 37C64.75 32.7499 68.2082 29.2917 72.4583 29.2917ZM61.6667 37C61.6667 42.4274 65.6941 46.932 70.9167 47.6817V58.5833C70.9167 60.283 69.5331 61.6666 67.8334 61.6666H6.16671C4.46703 61.6666 3.08343 60.283 3.08343 58.5833V47.6817C8.30607 46.9319 12.3334 42.4274 12.3334 37C12.3334 31.5726 8.30607 27.068 3.08343 26.3183V15.4167C3.08343 13.717 4.46703 12.3334 6.16671 12.3334H67.8334C69.5331 12.3334 70.9167 13.717 70.9167 15.4167V26.3183C65.6939 27.068 61.6667 31.5726 61.6667 37Z" fill="white"/>
<path d="M20.0417 15.0312C19.1896 15.0312 18.5 15.7208 18.5 16.573V20.0417C18.5 20.8939 19.1896 21.5834 20.0417 21.5834C20.8939 21.5834 21.5834 20.8939 21.5834 20.0417V16.573C21.5833 15.7208 20.8939 15.0312 20.0417 15.0312Z" fill="white"/>
<path d="M20.0417 27.75C19.1896 27.75 18.5 28.4396 18.5 29.2917V32.375C18.5 33.2272 19.1896 33.9167 20.0417 33.9167C20.8939 33.9167 21.5834 33.2272 21.5834 32.375V29.2917C21.5833 28.4396 20.8939 27.75 20.0417 27.75Z" fill="white"/>
<path d="M20.0417 40.083C19.1896 40.083 18.5 40.7726 18.5 41.6247V44.708C18.5 45.5602 19.1896 46.2497 20.0417 46.2497C20.8939 46.2497 21.5834 45.5602 21.5834 44.708V41.6247C21.5833 40.7726 20.8939 40.083 20.0417 40.083Z" fill="white"/>
<path d="M20.0417 52.417C19.1896 52.417 18.5 53.1066 18.5 53.9587V57.042C18.5 57.8941 19.1896 58.5837 20.0417 58.5837C20.8939 58.5837 21.5834 57.8941 21.5834 57.042V53.9587C21.5833 53.1066 20.8939 52.417 20.0417 52.417Z" fill="white"/>
<path d="M51.7294 21.8425C51.0157 21.3697 50.0628 21.5609 49.5915 22.27L31.0915 50.02C30.6187 50.7291 30.81 51.6852 31.519 52.1579C31.7825 52.3325 32.0791 52.4169 32.3726 52.4169C32.871 52.4169 33.3602 52.176 33.6568 51.7304L52.1568 23.9804C52.6297 23.2712 52.4385 22.3152 51.7294 21.8425Z" fill="white"/>
<path d="M40.0833 29.2913C40.0833 25.0412 37.3177 21.583 33.9166 21.583C30.5155 21.583 27.75 25.0411 27.75 29.2913C27.75 33.5415 30.5156 36.9996 33.9167 36.9996C37.3178 36.9996 40.0833 33.5414 40.0833 29.2913ZM30.8333 29.2913C30.8333 26.7845 32.2455 24.6663 33.9166 24.6663C35.5876 24.6663 36.9999 26.7845 36.9999 29.2913C36.9999 31.798 35.5876 33.9163 33.9166 33.9163C32.2455 33.9163 30.8333 31.7979 30.8333 29.2913Z" fill="white"/>
<path d="M49.3347 37C45.9337 37 43.168 40.4582 43.168 44.7083C43.168 48.9584 45.9336 52.4166 49.3347 52.4166C52.7356 52.4166 55.5014 48.9584 55.5014 44.7083C55.5014 40.4582 52.7358 37 49.3347 37ZM49.3347 49.3333C47.6635 49.3333 46.2514 47.215 46.2514 44.7083C46.2514 42.2015 47.6636 40.0833 49.3347 40.0833C51.0059 40.0833 52.418 42.2015 52.418 44.7083C52.418 47.215 51.0059 49.3333 49.3347 49.3333Z" fill="white"/>
</svg>
