<svg width="74" height="74" viewBox="0 0 74 74" fill="none" xmlns="http://www.w3.org/2000/svg">
<path d="M72.4583 29.2917C73.3104 29.2917 74 28.6022 74 27.75V15.4167C74 12.0156 71.2344 9.25 67.8333 9.25H6.16671C2.76561 9.25 0 12.0156 0 15.4167V27.75C0 28.6022 0.689559 29.2917 1.54171 29.2917C5.7918 29.2917 9.25 32.7499 9.25 37C9.25 41.2501 5.7918 44.7083 1.54171 44.7083C0.689559 44.7083 0 45.3978 0 46.25V58.5833C0 61.9844 2.76561 64.75 6.16671 64.75H67.8334C71.2344 64.75 74 61.9844 74 58.5833V46.25C74 45.3978 73.3104 44.7083 72.4583 44.7083C68.2082 44.7083 64.75 41.2501 64.75 37C64.75 32.7499 68.2082 29.2917 72.4583 29.2917ZM61.6667 37C61.6667 42.4274 65.6941 46.932 70.9167 47.6817V58.5833C70.9167 60.283 69.5331 61.6666 67.8334 61.6666H6.16671C4.46703 61.6666 3.08343 60.283 3.08343 58.5833V47.6817C8.30607 46.9319 12.3334 42.4274 12.3334 37C12.3334 31.5726 8.30607 27.068 3.08343 26.3183V15.4167C3.08343 13.717 4.46703 12.3334 6.16671 12.3334H67.8334C69.5331 12.3334 70.9167 13.717 70.9167 15.4167V26.3183C65.6939 27.068 61.6667 31.5726 61.6667 37Z" fill="black"/>
<path d="M20.0417 15.0312C19.1896 15.0312 18.5 15.7208 18.5 16.573V20.0417C18.5 20.8939 19.1896 21.5834 20.0417 21.5834C20.8939 21.5834 21.5834 20.8939 21.5834 20.0417V16.573C21.5833 15.7208 20.8939 15.0312 20.0417 15.0312Z" fill="black"/>
<path d="M20.0417 27.75C19.1896 27.75 18.5 28.4396 18.5 29.2917V32.375C18.5 33.2272 19.1896 33.9167 20.0417 33.9167C20.8939 33.9167 21.5834 33.2272 21.5834 32.375V29.2917C21.5833 28.4396 20.8939 27.75 20.0417 27.75Z" fill="black"/>
<path d="M20.0417 40.0835C19.1896 40.0835 18.5 40.7731 18.5 41.6252V44.7085C18.5 45.5607 19.1896 46.2502 20.0417 46.2502C20.8939 46.2502 21.5834 45.5607 21.5834 44.7085V41.6252C21.5833 40.7731 20.8939 40.0835 20.0417 40.0835Z" fill="black"/>
<path d="M20.0417 52.4165C19.1896 52.4165 18.5 53.1061 18.5 53.9582V57.0415C18.5 57.8937 19.1896 58.5832 20.0417 58.5832C20.8939 58.5832 21.5834 57.8937 21.5834 57.0415V53.9582C21.5833 53.1061 20.8939 52.4165 20.0417 52.4165Z" fill="black"/>
<path d="M51.7294 21.842C51.0157 21.3692 50.0628 21.5604 49.5915 22.2695L31.0915 50.0195C30.6187 50.7286 30.81 51.6847 31.519 52.1574C31.7825 52.332 32.0791 52.4164 32.3726 52.4164C32.871 52.4164 33.3602 52.1755 33.6568 51.7299L52.1568 23.9799C52.6297 23.2707 52.4385 22.3148 51.7294 21.842Z" fill="black"/>
<path d="M40.0833 29.2918C40.0833 25.0417 37.3177 21.5835 33.9166 21.5835C30.5155 21.5835 27.75 25.0416 27.75 29.2918C27.75 33.542 30.5156 37.0001 33.9167 37.0001C37.3178 37.0001 40.0833 33.5419 40.0833 29.2918ZM30.8333 29.2918C30.8333 26.785 32.2455 24.6668 33.9166 24.6668C35.5876 24.6668 36.9999 26.785 36.9999 29.2918C36.9999 31.7985 35.5876 33.9168 33.9166 33.9168C32.2455 33.9168 30.8333 31.7984 30.8333 29.2918Z" fill="black"/>
<path d="M49.3347 37C45.9337 37 43.168 40.4582 43.168 44.7083C43.168 48.9584 45.9336 52.4166 49.3347 52.4166C52.7356 52.4166 55.5014 48.9584 55.5014 44.7083C55.5014 40.4582 52.7358 37 49.3347 37ZM49.3347 49.3333C47.6635 49.3333 46.2514 47.215 46.2514 44.7083C46.2514 42.2015 47.6636 40.0833 49.3347 40.0833C51.0059 40.0833 52.418 42.2015 52.418 44.7083C52.418 47.215 51.0059 49.3333 49.3347 49.3333Z" fill="black"/>
</svg>
