<svg width="16" height="16" viewBox="0 0 16 16" fill="none" xmlns="http://www.w3.org/2000/svg">
<path d="M8 0C3.58887 0 0 3.58887 0 8C0 12.4111 3.58887 16 8 16C12.4111 16 16 12.4111 16 8C16 3.58887 12.4111 0 8 0ZM8 15.3333C3.95638 15.3333 0.666656 12.0436 0.666656 8C0.666656 3.95638 3.95638 0.666656 8 0.666656C12.0436 0.666656 15.3333 3.95638 15.3333 8C15.3333 12.0436 12.0436 15.3333 8 15.3333Z" fill="black"/>
<path d="M12.097 4.76463L6.33268 10.529L3.23502 7.43132C3.1048 7.3011 2.89387 7.3011 2.76368 7.43132C2.63346 7.56154 2.63346 7.77247 2.76368 7.90266L6.09702 11.236C6.16212 11.3011 6.24743 11.3337 6.33271 11.3337C6.41799 11.3337 6.50327 11.3011 6.5684 11.236L12.5684 5.236C12.6986 5.10579 12.6986 4.89485 12.5684 4.76466C12.4381 4.63444 12.2272 4.63444 12.097 4.76463Z" fill="black"/>
</svg>
